<svg xmlns="http://www.w3.org/2000/svg" viewBox="0 0 320 320"><rect width="320" height="320" rx="160" fill="#fff"/><circle cx="160" cy="160" r="142" fill="#fff" stroke="#050505" stroke-width="18"/><circle cx="160" cy="160" r="109" fill="#fff" stroke="#111" stroke-width="5"/><path d="M160 96c33 0 60 27 60 60 0 21-17 38-38 38-21 0-38-17-38-38 0-21-17-38-38-38 11-14 31-22 54-22Z" fill="#e11d2e"/><path d="M160 216c-33 0-60-27-60-60 0-21 17-38 38-38 21 0 38 17 38 38 0 21 17 38 38 38-11 14-31 22-54 22Z" fill="#2563eb"/><circle cx="137" cy="156" r="13" fill="#2563eb"/><circle cx="183" cy="156" r="13" fill="#e11d2e"/><path d="M92 230h136l-24 35H116l-24-35Z" fill="#111"/><text x="160" y="47" text-anchor="middle" font-family="Arial Black,Arial,sans-serif" font-size="25" fill="#111">HAN</text><text x="160" y="286" text-anchor="middle" font-family="Arial Black,Arial,sans-serif" font-size="20" fill="#111">TAEKWONDO</text></svg>