<?xml version="1.0" standalone="no"?>
<!DOCTYPE svg PUBLIC "-//W3C//DTD SVG 20010904//EN"
 "http://www.w3.org/TR/2001/REC-SVG-20010904/DTD/svg10.dtd">
<svg version="1.0" xmlns="http://www.w3.org/2000/svg"
 width="1254.000000pt" height="1254.000000pt" viewBox="0 0 1254.000000 1254.000000"
 preserveAspectRatio="xMidYMid meet">
<metadata>
Created by potrace 1.16, written by Peter Selinger 2001-2019
</metadata>
<g transform="translate(0.000000,1254.000000) scale(0.100000,-0.100000)"
fill="#000000" stroke="none">
<path d="M5925 11899 c-508 -43 -856 -110 -1199 -230 -532 -187 -938 -382
-1321 -633 -618 -406 -1206 -1020 -1608 -1679 -97 -159 -264 -486 -336 -657
-147 -350 -281 -858 -330 -1260 -67 -537 -53 -1189 34 -1667 163 -886 567
-1731 1149 -2403 338 -389 944 -903 1321 -1119 l87 -50 200 100 c186 93 488
228 603 270 171 61 253 98 285 129 57 54 126 106 185 140 30 17 55 35 55 38 0
4 -42 22 -93 41 -719 263 -1341 704 -1802 1276 -384 478 -622 953 -765 1525
-89 357 -122 622 -124 975 -1 504 82 961 266 1460 128 346 237 545 496 900
149 205 236 308 392 465 406 410 884 721 1420 925 510 194 931 275 1435 275
381 0 721 -48 1097 -156 902 -258 1695 -842 2226 -1639 525 -787 754 -1825
616 -2800 -99 -700 -410 -1417 -858 -1976 -430 -537 -1025 -975 -1644 -1210
-33 -13 -21 -21 58 -39 357 -81 938 -292 1289 -470 l58 -29 133 100 c381 286
813 703 1085 1048 223 283 505 773 675 1171 206 485 350 1047 401 1565 28 277
14 841 -27 1165 -88 695 -370 1465 -756 2069 -244 382 -415 599 -691 879 -562
569 -1273 999 -2109 1276 -265 88 -485 137 -831 185 -338 48 -786 64 -1072 40z
m313 -287 c2 -12 -3 -24 -10 -26 -7 -3 -73 -6 -145 -8 l-133 -4 0 27 c0 34 15
37 175 35 106 -1 110 -2 113 -24z m497 9 c35 -6 40 -10 37 -31 -2 -14 -5 -26
-5 -26 -1 -1 -64 3 -139 9 l-138 11 0 28 0 29 103 -7 c56 -4 120 -10 142 -13z
m-1045 -41 c0 -11 0 -23 0 -27 1 -7 -210 -41 -258 -42 -20 -1 -23 3 -20 26 3
27 6 28 113 44 154 23 165 23 165 -1z m1501 -22 c111 -20 119 -23 119 -44 0
-13 -4 -25 -8 -28 -7 -4 -272 40 -279 47 -1 2 0 13 4 25 7 27 15 27 164 0z
m-2033 -85 c3 -18 -4 -24 -40 -33 -24 -6 -83 -22 -132 -35 -49 -14 -92 -22
-96 -20 -15 9 -18 46 -4 52 41 16 232 62 249 60 12 -1 21 -11 23 -24z m2536
-39 c67 -19 127 -37 133 -39 10 -3 10 -10 1 -30 -6 -14 -14 -25 -17 -25 -3 0
-48 13 -98 29 -51 16 -106 32 -123 36 -16 4 -32 10 -34 14 -6 9 4 51 12 51 3
0 59 -16 126 -36z m-3056 -109 c6 -13 8 -26 3 -29 -27 -17 -247 -96 -256 -92
-7 2 -15 14 -18 25 -4 18 9 26 122 70 69 28 129 50 132 51 3 0 11 -11 17 -25z
m1602 -9 c0 -14 -3 -27 -7 -29 -5 -3 -69 -7 -143 -8 l-135 -4 -3 27 c-3 25 0
27 40 31 24 2 89 4 146 5 102 2 102 2 102 -22z m445 8 c44 -3 83 -8 86 -10 4
-2 4 -15 1 -30 -5 -26 -6 -26 -61 -20 -31 3 -93 8 -138 12 -77 6 -83 8 -83 29
0 32 9 36 65 31 27 -3 86 -8 130 -12z m-987 -54 c3 -25 1 -25 -135 -46 -76
-12 -139 -21 -140 -20 -1 1 -4 13 -8 27 l-7 26 124 21 c151 25 162 24 166 -8z
m2524 -27 c60 -25 110 -48 113 -52 2 -4 -2 -17 -10 -29 -15 -20 -16 -20 -132
30 -65 28 -122 54 -126 58 -5 4 -6 18 -2 29 8 26 10 26 157 -36z m-1065 17
c143 -28 143 -28 143 -54 0 -12 -2 -25 -5 -28 -6 -6 -261 45 -270 54 -9 9 4
48 15 48 5 0 58 -9 117 -20z m-1993 -86 c4 -15 6 -28 4 -29 -9 -8 -264 -72
-270 -68 -5 2 -8 15 -8 27 0 22 10 27 118 56 64 17 122 33 127 35 20 7 23 5
29 -21z m2527 -50 c63 -20 117 -39 120 -42 4 -4 3 -17 -2 -30 -7 -19 -13 -22
-31 -16 -13 4 -70 22 -128 40 -58 18 -105 37 -104 43 5 51 -2 51 145 5z
m-3551 -3 c5 -11 10 -24 10 -28 0 -5 -54 -36 -121 -68 -117 -58 -121 -59 -135
-41 -8 11 -14 22 -14 25 0 6 226 126 242 130 4 0 12 -8 18 -18z m4590 -131
c41 -23 76 -43 78 -45 6 -6 -18 -45 -28 -45 -5 0 -57 27 -116 60 -59 33 -113
61 -118 63 -6 2 -3 14 7 30 l18 27 42 -24 c23 -13 76 -43 117 -66z m-4078 25
c6 -14 9 -26 7 -28 -2 -1 -61 -25 -131 -53 l-126 -50 -12 24 c-6 14 -9 26 -7
28 5 6 240 102 250 103 4 1 13 -10 19 -24z m1598 -5 l0 -30 -87 0 c-49 0 -112
-3 -140 -6 l-53 -7 0 31 0 31 83 4 c45 1 108 4 140 5 l57 2 0 -30z m438 11
c45 -5 85 -11 88 -14 3 -3 3 -15 -1 -27 -7 -21 -11 -22 -98 -16 -177 13 -185
14 -179 42 4 22 9 24 56 23 28 0 88 -4 134 -8z m-968 -49 l0 -29 -119 -16
c-66 -9 -126 -19 -134 -23 -10 -3 -16 4 -20 23 -3 15 -4 29 -3 30 4 4 228 41
254 42 18 1 22 -4 22 -27z m2485 -45 c55 -25 101 -50 102 -54 2 -5 -3 -17 -11
-28 -13 -18 -17 -17 -112 27 -55 25 -109 48 -121 52 -25 8 -28 18 -13 46 12
22 8 24 155 -43z m-1035 22 c127 -28 130 -29 130 -42 -1 -38 -14 -39 -145 -12
-71 14 -131 28 -134 30 -2 3 1 16 7 29 7 16 17 23 29 20 10 -2 61 -13 113 -25z
m-1970 -84 c0 -20 -7 -26 -42 -35 -24 -6 -81 -22 -127 -36 -85 -26 -97 -25
-103 10 -3 17 14 24 127 56 72 21 133 35 138 33 4 -2 7 -15 7 -28z m-1532 3
c7 -7 12 -17 12 -23 0 -6 -51 -46 -114 -88 l-114 -76 -17 25 c-9 14 -15 27
-13 29 14 12 221 145 227 145 4 0 12 -5 19 -12z m4012 -56 c114 -38 130 -51
110 -82 -8 -12 -27 -8 -131 28 -68 23 -125 44 -127 47 -8 8 10 45 22 45 6 0
63 -17 126 -38z m-3513 -14 c9 -21 4 -26 -66 -64 -42 -22 -95 -51 -117 -64
-36 -21 -44 -22 -58 -11 -9 7 -16 19 -16 26 0 11 214 134 236 135 6 0 15 -10
21 -22z m4985 -75 l109 -76 -22 -23 -22 -24 -31 23 c-23 18 -154 112 -184 133
-7 5 19 44 30 44 6 0 60 -34 120 -77z m-452 -56 c36 -22 67 -41 69 -43 2 -2
-4 -15 -13 -28 l-16 -25 -107 65 c-59 35 -111 64 -115 64 -13 0 -9 22 8 41 18
20 14 22 174 -74z m-4008 48 c0 -8 1 -20 2 -26 1 -6 -54 -35 -122 -64 -114
-49 -123 -51 -132 -34 -6 10 -10 22 -10 27 0 6 48 30 108 55 156 65 151 64
154 42z m3503 -117 c44 -22 81 -42 83 -43 5 -5 -22 -45 -30 -45 -4 0 -60 25
-123 56 -113 54 -118 59 -93 91 11 13 37 4 163 -59z m-4959 -39 c19 -21 19
-21 -21 -52 -22 -18 -68 -56 -102 -84 -34 -29 -66 -53 -71 -53 -5 0 -17 8 -26
19 -16 18 -12 22 86 104 57 48 106 87 109 87 3 0 14 -9 25 -21z m482 -40 c-2
-4 -52 -42 -112 -84 -100 -69 -110 -74 -121 -58 -7 10 -14 22 -15 27 -1 5 47
42 106 82 102 70 108 73 126 57 10 -9 17 -20 16 -24z m502 -39 c9 -16 -4 -26
-105 -85 -96 -56 -118 -65 -131 -54 -8 7 -14 19 -12 27 3 16 218 143 230 136
4 -3 12 -13 18 -24z m5439 -167 c3 -2 -5 -13 -17 -25 l-21 -21 -67 59 c-37 32
-83 74 -103 91 l-36 33 25 19 24 19 96 -86 c52 -47 97 -88 99 -89z m-556 79
l98 -75 -21 -22 -22 -23 -104 80 c-57 43 -104 82 -104 85 0 15 34 42 44 36 6
-4 55 -40 109 -81z m-484 -37 c55 -37 101 -70 101 -74 0 -5 -8 -15 -18 -24
-16 -15 -25 -11 -125 54 -59 38 -107 72 -107 74 0 15 27 45 36 41 7 -2 57 -34
113 -71z m-5334 -125 c22 -24 34 -9 -103 -129 -81 -72 -83 -73 -103 -56 -10
10 -18 22 -17 27 4 10 190 176 199 177 3 1 14 -8 24 -19z m-450 -20 c19 -21
18 -22 -78 -118 l-97 -97 -22 23 -23 22 95 95 c52 52 97 95 101 95 3 0 14 -9
24 -20z m939 -1 c14 -21 11 -24 -72 -87 -48 -35 -96 -73 -108 -83 -20 -19 -21
-19 -43 5 l-22 23 108 81 c59 45 111 82 115 82 4 0 14 -10 22 -21z m5736 -163
l74 -76 -22 -22 -22 -23 -97 97 c-95 95 -97 97 -79 117 18 20 19 20 45 1 14
-10 60 -53 101 -94z m-510 38 c148 -129 134 -113 114 -135 -9 -10 -20 -19 -24
-19 -10 0 -200 160 -200 168 0 8 32 42 39 42 3 0 35 -25 71 -56z m998 -133
c15 -22 14 -24 -7 -41 -24 -17 -24 -17 -91 59 -37 42 -77 85 -89 95 l-21 19
22 25 23 24 73 -78 c41 -44 81 -90 90 -103z m-6634 -69 c16 -18 12 -24 -79
-113 -53 -52 -100 -95 -104 -97 -4 -1 -16 7 -27 19 l-19 21 100 94 c55 52 103
94 106 94 3 0 13 -8 23 -18z m-452 -9 c15 -17 9 -26 -78 -118 l-94 -100 -22
22 -22 23 34 37 c92 100 145 153 156 153 6 0 18 -8 26 -17z m-414 -64 c-2 -4
-39 -53 -82 -108 -78 -98 -79 -99 -102 -84 -13 8 -24 18 -24 20 0 3 36 52 81
109 81 103 81 103 105 87 14 -9 23 -19 22 -24z m7000 -211 c-2 -6 -13 -17 -24
-23 -17 -11 -29 -3 -113 86 l-93 99 23 20 24 20 93 -95 c52 -53 92 -101 90
-107z m342 85 c76 -91 79 -97 63 -115 -9 -10 -21 -18 -27 -18 -13 0 -166 184
-166 199 0 10 28 30 42 31 4 0 44 -44 88 -97z m408 -52 c40 -54 72 -103 72
-108 0 -13 -42 -36 -50 -26 -4 4 -39 51 -78 104 -65 89 -69 98 -54 113 9 9 21
16 27 16 7 0 44 -45 83 -99z m-7301 -230 c-34 -42 -72 -89 -84 -106 -21 -29
-21 -30 -42 -11 -12 11 -21 23 -21 27 0 5 37 54 82 109 l81 101 23 -22 23 -21
-62 -77z m-363 56 c-1 -8 -34 -60 -74 -116 l-73 -102 -23 22 c-27 25 -31 16
59 142 67 92 72 96 91 83 12 -8 20 -21 20 -29z m-407 -42 c21 -15 21 -16 -50
-129 -62 -98 -74 -113 -90 -104 -10 5 -21 16 -24 23 -5 14 122 225 136 225 4
0 16 -7 28 -15z m7569 -112 l77 -106 -22 -19 c-13 -10 -26 -18 -30 -18 -3 1
-28 33 -56 72 -27 39 -61 86 -74 104 -23 33 -23 35 -6 54 10 11 22 20 26 20 4
0 42 -48 85 -107z m395 -34 l73 -111 -24 -20 c-28 -23 -24 -27 -110 105 -61
95 -62 98 -45 117 10 11 21 20 25 20 4 0 40 -50 81 -111z m384 -65 c37 -63 66
-117 64 -118 -11 -9 -51 -27 -54 -24 -2 2 -31 52 -65 112 l-62 110 22 18 c12
10 24 18 25 18 2 0 33 -52 70 -116z m-7848 -122 l22 -17 -70 -110 c-39 -60
-76 -109 -82 -107 -7 2 -18 9 -26 17 -12 12 -11 19 8 52 39 67 116 183 121
183 3 0 15 -8 27 -18z m-369 -51 c-2 -4 -31 -57 -66 -119 l-64 -111 -24 15
c-13 9 -24 19 -24 22 0 7 76 146 107 195 23 37 24 37 49 21 13 -9 23 -20 22
-23z m-430 -190 c-58 -116 -60 -119 -84 -109 -13 6 -24 17 -24 25 0 7 25 63
55 123 l55 110 29 -15 29 -15 -60 -119z m8149 28 c34 -57 62 -109 62 -115 1
-13 -52 -39 -56 -27 -2 5 -32 57 -67 116 -63 107 -64 107 -43 122 12 8 26 14
32 12 5 -2 38 -50 72 -108z m379 -63 c30 -59 54 -109 52 -111 -7 -6 -47 -25
-52 -25 -3 0 -33 54 -66 120 l-60 119 28 15 c32 17 26 25 98 -118z m355 -65
c27 -62 48 -115 47 -116 -17 -13 -53 -26 -55 -19 -2 5 -25 59 -53 119 -45 101
-48 111 -32 123 9 7 23 11 30 10 8 -2 36 -54 63 -117z m-8348 -102 c12 -7 23
-13 25 -14 6 -5 -111 -235 -120 -235 -5 0 -18 5 -28 10 -23 12 -23 12 43 153
25 53 48 97 52 97 3 0 16 -5 28 -11z m-364 -46 l22 -18 -46 -110 c-25 -60 -50
-114 -54 -118 -4 -4 -19 -3 -33 4 l-26 11 33 82 c77 189 68 178 104 149z
m-345 -86 c16 -12 14 -20 -27 -130 -24 -64 -46 -120 -49 -123 -4 -3 -18 0 -31
8 l-25 13 45 123 c25 67 50 122 57 122 7 0 20 -6 30 -13z m8536 -64 c18 -43
41 -99 51 -125 l18 -46 -30 -11 c-34 -12 -25 -24 -95 143 -35 85 -36 90 -19
103 32 23 41 15 75 -64z m376 -133 l33 -95 -27 -12 c-15 -6 -30 -8 -33 -5 -9
11 -91 243 -87 247 2 2 15 8 28 13 29 11 32 7 86 -148z m324 -36 c23 -70 38
-130 33 -134 -4 -4 -18 -11 -29 -14 -20 -6 -24 2 -49 81 -60 190 -57 170 -27
182 15 5 28 10 29 10 1 1 20 -56 43 -125z m-8715 -115 c9 -9 -57 -233 -74
-251 -3 -3 -18 -1 -33 5 l-27 12 42 128 c37 116 43 127 61 121 12 -3 25 -10
31 -15z m-339 -64 c-2 -5 -19 -63 -37 -128 -30 -107 -34 -117 -53 -111 -39 12
-40 21 -11 126 43 156 39 149 75 135 16 -6 28 -16 26 -22z m-332 -99 c-4 -11
-19 -68 -34 -126 -26 -103 -27 -105 -55 -103 -15 1 -29 4 -31 5 -3 3 50 223
61 255 3 9 12 10 35 2 25 -9 29 -15 24 -33z m8875 -89 c19 -70 32 -129 30
-131 -2 -3 -17 -6 -33 -8 l-29 -3 -33 125 c-18 69 -33 126 -34 128 0 5 45 21
55 18 6 -1 25 -60 44 -129z m305 21 c24 -89 50 -207 45 -212 -2 -2 -16 -7 -31
-11 -24 -6 -28 -4 -34 22 -3 15 -17 72 -30 126 -13 54 -24 100 -24 103 0 5 39
22 52 23 4 1 14 -23 22 -51z m329 -95 c44 -198 44 -208 -3 -201 -21 3 -25 15
-47 122 -13 66 -21 126 -19 133 3 7 16 13 30 13 22 0 26 -7 39 -67z m-8975
-168 c3 -3 -35 -214 -44 -248 -4 -13 -12 -16 -32 -11 -15 4 -29 8 -31 10 -4 4
39 245 46 257 4 7 52 1 61 -8z m-333 -55 c5 -8 -33 -251 -40 -259 -2 -2 -16
-1 -30 3 -30 8 -31 16 -10 146 21 128 21 128 50 122 14 -2 27 -8 30 -12z
m8783 -212 c10 -71 17 -130 14 -133 -8 -8 -62 -6 -62 3 0 4 -9 61 -20 127 -11
66 -20 123 -20 127 0 8 53 16 62 8 3 -3 15 -62 26 -132z m-9115 123 l24 -9
-13 -84 c-7 -45 -15 -104 -19 -130 -6 -44 -8 -48 -34 -48 -38 0 -39 3 -30 58
4 26 13 86 19 135 7 48 16 87 20 87 5 0 20 -4 33 -9z m9412 -83 c12 -71 25
-175 25 -204 0 -26 -5 -33 -26 -38 -15 -4 -28 -6 -29 -4 -8 7 -36 250 -31 263
3 8 17 15 30 15 20 0 26 -6 31 -32z m319 -143 c4 -44 9 -102 13 -128 l6 -48
-34 3 -34 3 -12 110 c-17 158 -17 153 15 157 15 2 30 -1 33 -7 4 -5 9 -46 13
-90z m-9149 -207 c-13 -190 -13 -188 -46 -188 -28 0 -29 2 -29 43 0 24 3 85 6
135 l7 92 34 0 34 0 -6 -82z m-319 19 c1 -1 0 -62 -3 -135 l-6 -133 -31 3 -31
3 4 130 c2 72 6 134 8 138 4 7 52 1 59 -6z m8903 -254 l1 -103 -29 0 c-17 0
-32 4 -35 8 -3 5 -6 64 -7 133 l-1 124 28 5 c27 5 30 2 36 -30 4 -19 7 -81 7
-137z m-9204 115 c-1 -21 -2 -83 -3 -139 l-2 -100 -27 3 -28 3 -3 138 -3 138
33 -3 c31 -3 33 -5 33 -40z m9505 -149 l0 -140 -32 3 -33 3 -3 124 c-1 69 0
131 2 138 3 7 19 13 36 13 l30 0 0 -141z m295 -72 l0 -132 -32 -3 -33 -3 0
135 0 136 33 0 32 0 0 -133z m-9191 -218 c4 -72 5 -133 3 -135 -3 -3 -17 -6
-33 -7 l-29 -2 -7 130 c-3 71 -4 133 -2 137 3 4 18 8 33 8 l28 0 7 -131z
m-314 13 c0 -33 3 -93 6 -135 l7 -77 -31 0 c-34 0 -33 -3 -47 188 l-6 82 35 0
36 0 0 -58z m8903 -39 c3 -5 0 -65 -6 -135 l-11 -128 -34 0 -34 0 6 63 c3 34
9 95 12 135 6 71 7 72 35 72 15 0 30 -3 32 -7z m-9189 -125 c4 -62 10 -123 13
-135 5 -21 1 -23 -30 -23 l-34 0 -7 103 c-4 56 -10 117 -13 135 -5 31 -4 32
30 32 l34 0 7 -112z m9486 40 c0 -12 -5 -73 -12 -135 l-11 -114 -31 3 c-35 3
-33 -10 -21 166 l8 102 33 0 c28 0 34 -4 34 -22z m284 -120 c-19 -202 -16
-193 -48 -191 -16 1 -30 3 -31 5 -2 2 2 60 8 131 l11 127 33 0 34 0 -7 -72z
m-9120 -260 c10 -62 20 -123 23 -135 5 -21 1 -23 -31 -23 -22 0 -36 5 -36 13
0 6 -9 65 -19 129 -19 122 -18 126 25 127 19 1 23 -9 38 -111z m-320 25 c42
-220 41 -252 -6 -253 -18 0 -20 7 -43 150 -19 118 -19 118 3 123 34 9 41 7 46
-20z m8803 -85 c-3 -13 -16 -74 -28 -136 l-22 -114 -30 6 c-17 3 -31 7 -32 9
-1 1 9 59 23 130 l26 127 34 0 c30 0 34 -2 29 -22z m-9072 -100 c31 -180 31
-168 -2 -168 l-30 0 -22 114 c-28 151 -28 156 7 156 29 0 29 -1 47 -102z
m9361 28 c-3 -11 -16 -72 -28 -133 -18 -91 -25 -113 -39 -113 -47 0 -47 4 -22
133 14 67 26 127 28 133 2 6 17 9 35 6 27 -4 31 -8 26 -26z m282 -50 c5 -5
-48 -250 -55 -257 -12 -10 -53 8 -53 24 0 11 26 139 46 225 4 20 9 23 32 17
15 -4 28 -8 30 -9z m-8941 -319 c17 -61 34 -119 38 -128 4 -12 -2 -19 -24 -27
-17 -6 -32 -8 -35 -4 -8 14 -66 228 -66 244 0 15 15 24 45 27 6 0 24 -50 42
-112z m-327 1 c6 -24 22 -81 35 -128 14 -46 22 -87 17 -91 -4 -4 -17 -10 -29
-13 -20 -6 -24 -1 -42 61 -61 209 -59 199 -33 206 36 10 42 6 52 -35z m8579
-44 c2 -2 -15 -63 -38 -134 -39 -122 -44 -131 -64 -124 -12 3 -25 9 -29 13 -4
3 11 63 33 134 40 126 41 127 67 121 15 -4 29 -8 31 -10z m-8843 -95 c12 -41
29 -98 37 -127 l16 -53 -26 -10 c-14 -5 -28 -7 -30 -5 -7 6 -73 237 -73 252 0
12 26 23 45 19 5 -1 19 -35 31 -76z m9113 22 c12 -8 8 -30 -24 -135 -40 -127
-48 -139 -84 -117 -12 8 -8 30 24 135 40 127 48 139 84 117z m298 -65 c2 -1
-15 -59 -38 -129 -31 -98 -44 -127 -57 -127 -42 1 -43 12 -7 130 20 63 38 121
40 129 4 9 14 11 33 6 15 -4 28 -8 29 -9z m-8667 -258 c12 -35 36 -89 52 -122
16 -32 28 -59 26 -61 -14 -12 -50 -25 -57 -21 -4 3 -30 58 -56 122 -45 111
-47 118 -29 131 31 22 41 15 64 -49z m-283 -144 l52 -125 -25 -11 c-15 -7 -28
-8 -34 -2 -8 9 -100 227 -100 239 0 5 36 23 50 24 3 1 29 -55 57 -125z m8184
55 c24 -12 23 -17 -42 -155 -48 -104 -48 -104 -74 -92 -17 7 -25 18 -21 27 13
44 102 231 109 231 5 0 17 -5 28 -11z m-8456 -149 c26 -66 46 -122 44 -124 -2
-2 -14 -8 -25 -14 -20 -11 -24 -7 -47 46 -65 146 -81 194 -66 203 34 22 45 9
94 -111z m8708 -64 l-56 -125 -28 15 -29 15 28 57 c16 31 41 87 57 124 l28 67
28 -14 27 -15 -55 -124z m315 78 c12 -4 22 -11 22 -16 0 -8 -98 -237 -105
-246 -6 -7 -55 23 -52 32 25 64 103 236 107 236 3 0 15 -3 28 -6z m-8226 -272
c26 -48 55 -99 65 -114 17 -27 17 -28 -2 -42 -11 -9 -24 -14 -30 -12 -9 2
-135 214 -135 227 0 5 38 27 50 28 3 0 26 -39 52 -87z m-297 -115 c33 -61 61
-115 63 -118 3 -6 -49 -32 -53 -27 -2 2 -31 54 -66 117 -60 108 -62 114 -44
127 10 8 24 14 29 14 6 0 38 -51 71 -113z m7728 51 c15 -12 10 -24 -54 -125
-39 -62 -76 -113 -84 -113 -7 0 -18 7 -26 16 -10 13 -10 19 2 38 8 12 38 61
68 109 30 48 59 87 66 87 6 0 19 -6 28 -12z m-7959 -275 c-10 -7 -23 -13 -28
-13 -11 0 -126 208 -126 227 0 6 10 14 22 20 21 9 27 2 86 -106 59 -107 62
-116 46 -128z m8237 197 c10 -6 19 -15 19 -21 0 -18 -124 -219 -136 -219 -5 0
-18 6 -28 13 -16 12 -12 21 49 125 37 62 69 112 71 112 3 0 14 -5 25 -10z
m293 -63 c11 -8 17 -18 15 -24 -15 -38 -126 -223 -134 -223 -5 1 -18 7 -27 14
-17 12 -13 22 48 130 36 64 69 116 73 116 4 0 15 -6 25 -13z m-7701 -254 c73
-98 75 -102 57 -118 -10 -9 -24 -14 -30 -10 -17 10 -150 192 -150 204 0 11 31
32 41 28 4 -1 41 -48 82 -104z m-360 -35 c19 -29 52 -77 72 -105 31 -44 36
-55 25 -68 -7 -8 -18 -15 -26 -15 -12 0 -154 188 -154 205 0 8 31 34 41 35 3
0 22 -24 42 -52z m7200 -40 c-5 -7 -43 -55 -83 -106 -70 -88 -74 -91 -92 -75
-10 9 -17 22 -14 29 3 7 40 56 82 109 77 96 78 96 97 76 15 -14 17 -24 10 -33z
m-7440 -117 l75 -110 -25 -16 c-29 -19 -21 -27 -114 113 -59 89 -61 93 -43
107 10 8 22 15 25 15 4 0 40 -49 82 -109z m7737 64 c6 -8 8 -20 4 -27 -18 -31
-149 -198 -154 -198 -4 0 -15 8 -24 19 -16 18 -13 23 60 120 42 55 83 101 89
101 7 0 18 -7 25 -15z m293 -69 c16 -13 12 -21 -59 -117 -42 -57 -80 -108 -84
-112 -4 -4 -17 1 -30 11 l-22 18 78 107 c44 59 84 107 89 107 6 -1 18 -7 28
-14z m-7099 -192 l89 -93 -24 -20 -24 -21 -92 98 c-91 96 -92 97 -71 115 11 9
23 16 27 16 3 -1 46 -44 95 -95z m-396 -34 c12 -16 50 -59 84 -95 l61 -66 -21
-21 c-26 -26 -26 -26 -123 88 -70 82 -71 85 -54 104 24 26 27 25 53 -10z
m6566 -23 c9 -14 -4 -32 -79 -107 -49 -49 -95 -90 -101 -90 -6 0 -17 7 -24 16
-12 13 0 28 81 110 51 52 98 93 103 91 5 -2 14 -11 20 -20z m-6785 -159 l84
-101 -23 -19 c-13 -10 -26 -15 -30 -11 -3 4 -41 49 -83 99 -42 50 -77 96 -77
102 0 10 28 32 40 31 3 0 43 -46 89 -101z m7095 69 c9 -14 -4 -32 -81 -109
-92 -91 -92 -92 -113 -73 l-21 19 93 93 c51 51 97 92 102 90 5 -2 14 -11 20
-20z m291 -77 c21 -23 24 -19 -100 -147 -62 -66 -75 -72 -95 -48 -10 12 3 31
77 114 48 54 91 100 94 100 3 1 14 -8 24 -19z m-6415 -112 c41 -35 88 -73 104
-86 l30 -23 -22 -21 c-19 -20 -23 -20 -39 -7 -10 9 -58 48 -106 88 -85 70 -88
74 -71 92 9 10 20 19 23 19 4 0 40 -28 81 -62z m-262 -235 l-21 -22 -93 86
c-52 47 -94 88 -94 91 0 3 7 13 16 23 15 17 22 13 114 -69 l99 -87 -21 -22z
m6016 55 c11 -18 14 -14 -124 -127 -74 -60 -75 -61 -94 -41 -19 19 -19 19 9
42 17 13 63 51 104 86 75 64 87 68 105 40z m-6370 -77 c77 -77 88 -92 76 -105
-7 -9 -17 -16 -23 -16 -11 0 -151 130 -175 163 -11 14 -11 21 -2 32 7 8 18 15
24 15 6 0 51 -40 100 -89z m6669 -9 c16 -18 13 -22 -66 -93 -140 -126 -124
-116 -148 -92 l-20 20 103 91 c57 51 106 92 109 92 3 0 13 -8 22 -18z m-5588
-73 l114 -71 -17 -23 c-20 -27 -14 -29 -155 62 -97 62 -99 65 -82 84 10 10 20
19 22 19 2 0 56 -32 118 -71z m-428 -92 c32 -24 77 -57 100 -73 40 -29 41 -30
25 -52 l-17 -22 -80 56 c-154 108 -149 103 -129 125 21 24 27 22 101 -34z
m-248 -171 c51 -38 90 -74 88 -79 -2 -6 -10 -15 -19 -21 -13 -8 -37 6 -114 65
-54 41 -103 77 -108 81 -6 4 -3 15 9 28 15 17 21 18 36 8 9 -7 58 -44 108 -82z
m759 -153 c45 -25 82 -48 82 -51 0 -4 -6 -15 -14 -24 -11 -16 -23 -12 -130 47
-65 35 -120 66 -124 69 -3 3 3 15 13 26 l18 20 36 -21 c20 -12 73 -42 119 -66z"/>
<path d="M5390 9479 c-96 -5 -297 -12 -446 -17 -166 -6 -279 -14 -292 -21 -43
-23 -40 -69 18 -302 43 -170 66 -226 100 -244 37 -19 136 -19 457 0 437 25
719 37 1090 43 432 8 400 -3 409 137 8 115 -10 320 -30 351 -18 27 -22 28
-316 49 -229 16 -680 18 -990 4z"/>
<path d="M7662 9350 c-71 -6 -106 -15 -149 -37 -93 -46 -93 -48 -93 -379 l0
-282 -122 -6 c-68 -3 -339 -11 -603 -16 -1316 -29 -1936 -52 -2515 -95 -107
-8 -269 -20 -359 -27 -120 -9 -169 -16 -182 -27 -15 -14 -20 -49 -33 -265 -16
-262 -14 -281 27 -291 12 -3 182 8 377 24 195 17 412 34 483 37 l127 7 0 -24
c0 -13 -7 -89 -15 -169 -23 -217 -30 -551 -16 -708 47 -498 234 -775 591 -871
241 -66 626 -68 919 -6 227 48 359 112 481 235 125 124 195 272 234 491 54
303 1 698 -138 1026 l-43 102 61 5 c98 9 512 26 624 26 l103 0 -8 -392 c-15
-716 -4 -1237 27 -1349 13 -46 48 -81 108 -109 26 -12 76 -40 112 -63 60 -39
69 -42 136 -42 57 0 78 4 100 20 52 40 120 273 149 520 24 198 31 598 29 1659
l-1 970 -23 18 c-14 12 -39 18 -70 18 -26 0 -87 2 -136 4 -49 3 -131 1 -182
-4z"/>
<path d="M8447 8576 c-64 -18 -123 -60 -168 -120 -117 -154 -68 -388 99 -479
173 -94 378 -27 460 152 21 45 26 71 26 131 0 128 -60 229 -174 289 -72 38
-166 49 -243 27z"/>
<path d="M8805 7168 c-2 -7 -5 -44 -7 -83 -3 -52 -9 -78 -25 -100 -12 -16 -29
-56 -37 -88 -18 -62 -81 -207 -91 -207 -3 0 -17 7 -30 16 -24 16 -47 14 -150
-12 -18 -4 -21 0 -22 38 -3 54 -32 83 -78 74 -58 -12 -72 -64 -29 -115 l25
-30 -25 -38 c-30 -44 -32 -62 -10 -106 18 -35 63 -87 76 -87 4 0 17 9 28 20
20 20 22 20 70 4 28 -9 50 -20 50 -26 0 -5 10 -19 23 -31 24 -25 25 -37 26
-246 0 -62 5 -118 10 -125 15 -17 1 -65 -23 -78 -49 -27 -2473 -30 -3126 -5
-827 32 -1165 32 -1315 -3 -22 -5 -42 -6 -45 -4 -14 14 -1 522 20 797 l23 298
-21 21 c-18 18 -39 23 -147 31 -165 12 -357 -3 -394 -31 -23 -17 -27 -28 -33
-108 -3 -49 -11 -254 -18 -455 -12 -396 -29 -741 -56 -1106 -23 -305 -33 -290
211 -314 150 -14 270 -7 323 20 30 15 53 43 100 115 39 62 71 100 92 111 74
38 155 39 1880 27 916 -7 1856 -17 2089 -23 l423 -10 108 -34 c188 -61 193
-57 238 175 35 184 52 302 52 360 0 67 -22 76 -256 105 -51 6 -52 7 -56 43 -6
49 1 72 22 72 18 0 17 -8 50 375 6 66 17 140 25 165 8 25 22 79 31 120 9 41
29 98 45 126 34 60 36 88 9 129 -27 41 -25 62 10 95 34 32 37 42 13 61 -9 8
-22 29 -30 47 -13 32 -40 43 -48 20z"/>
<path d="M7247 4826 c-74 -27 -97 -66 -104 -175 -9 -136 35 -220 124 -235 100
-17 186 47 198 149 9 69 0 157 -20 195 -31 60 -127 92 -198 66z m127 -85 c16
-17 21 -37 24 -96 5 -83 -8 -127 -42 -150 -31 -23 -81 -18 -113 9 -27 23 -28
27 -28 121 0 95 1 97 29 122 24 21 37 24 69 20 22 -3 49 -15 61 -26z"/>
<path d="M8310 4818 c-69 -35 -85 -72 -85 -193 0 -113 13 -148 67 -186 44 -32
134 -33 175 -3 60 45 73 77 73 188 0 122 -15 159 -80 193 -54 29 -94 29 -150
1z m115 -58 c48 -18 70 -121 45 -212 -19 -69 -93 -90 -147 -44 -27 23 -28 27
-28 121 0 94 1 97 28 121 30 26 60 30 102 14z"/>
<path d="M4110 4625 l0 -205 45 0 45 0 0 85 0 86 68 -3 67 -3 3 -82 3 -83 44
0 45 0 0 205 0 205 -45 0 -45 0 0 -80 0 -80 -70 0 -70 0 0 80 0 80 -45 0 -45
0 0 -205z"/>
<path d="M4605 4818 c-2 -7 -35 -100 -73 -205 l-70 -193 49 0 c48 0 48 1 60
40 l12 40 73 0 73 0 11 -40 c11 -40 11 -40 60 -40 28 0 50 2 50 5 0 4 -64 189
-126 363 -16 42 -16 42 -65 42 -31 0 -51 -5 -54 -12z"/>
<path d="M4880 4626 l0 -206 44 0 44 0 7 66 c4 36 5 88 3 115 -6 62 -3 59 76
-72 l63 -104 46 -3 47 -3 0 205 0 206 -45 0 -44 0 -3 -117 -3 -117 -70 115
-70 114 -48 3 -47 3 0 -205z"/>
<path d="M5390 4800 c0 -30 1 -30 55 -30 l55 0 0 -175 0 -175 35 0 35 0 0 175
0 175 55 0 c54 0 55 0 55 30 l0 30 -145 0 -145 0 0 -30z"/>
<path d="M5790 4827 c0 -2 -31 -92 -70 -201 -38 -109 -70 -201 -70 -203 0 -2
17 -3 37 -1 34 3 38 6 49 43 l11 40 75 3 75 3 13 -46 c12 -43 14 -45 51 -45
l38 0 -69 201 c-39 111 -70 203 -70 205 0 2 -16 4 -35 4 -19 0 -35 -1 -35 -3z"/>
<path d="M6030 4625 l0 -205 125 0 125 0 0 30 0 30 -90 0 -90 0 0 55 0 55 74
0 74 0 4 30 c3 17 2 32 0 35 -3 3 -38 5 -79 5 l-73 0 0 55 0 55 90 0 90 0 0
30 0 30 -125 0 -125 0 0 -205z"/>
<path d="M6330 4625 l0 -205 35 0 35 0 0 63 c1 49 5 68 23 89 l23 28 53 -90
c52 -89 54 -90 92 -90 21 0 39 2 39 5 0 3 -31 56 -70 117 l-69 112 24 31 c13
16 43 56 65 88 l41 57 -40 0 c-38 0 -42 -3 -110 -91 l-71 -92 0 92 0 91 -35 0
-35 0 0 -205z"/>
<path d="M6664 4813 c2 -10 21 -94 41 -188 47 -223 41 -205 79 -205 l33 0 32
123 c17 67 31 129 31 136 0 38 20 -14 45 -114 15 -60 29 -118 32 -127 3 -13
14 -18 38 -18 28 0 36 5 40 23 12 52 85 380 85 383 0 2 -15 4 -34 4 -34 0 -35
-1 -46 -57 -25 -128 -48 -217 -53 -203 -3 8 -14 51 -25 95 -46 178 -40 165
-72 165 -32 0 -26 13 -71 -165 -12 -44 -23 -87 -26 -95 -3 -8 -16 37 -29 100
-36 174 -30 160 -70 160 -29 0 -34 -3 -30 -17z"/>
<path d="M7520 4626 l0 -206 35 0 34 0 3 138 3 137 80 -137 c77 -131 81 -137
113 -138 l32 0 0 205 0 205 -30 0 -29 0 -3 -137 -3 -138 -81 135 c-78 131 -81
135 -117 138 l-37 3 0 -205z"/>
<path d="M7890 4624 l0 -206 104 4 c95 3 107 5 131 28 46 43 55 72 55 175 0
168 -35 205 -194 205 l-96 0 0 -206z m202 116 c15 -18 18 -40 18 -117 0 -87
-2 -96 -25 -119 -22 -21 -33 -25 -78 -22 l-52 3 -3 129 c-1 72 0 136 3 144 9
24 114 11 137 -18z"/>
<path d="M4990 4177 c-31 -16 -54 -61 -46 -92 9 -35 33 -54 83 -68 54 -14 72
-40 47 -68 -21 -23 -47 -24 -84 -2 -24 14 -31 14 -45 3 -14 -12 -14 -14 1 -31
42 -47 135 -44 169 4 36 51 0 137 -57 137 -35 0 -70 28 -66 53 3 19 9 22 43
21 22 -1 49 -3 60 -5 33 -7 30 28 -4 45 -36 19 -67 20 -101 3z"/>
<path d="M5457 4183 c-4 -3 -7 -71 -7 -150 l0 -143 25 0 c24 0 24 1 27 96 l3
96 54 -96 c45 -78 59 -96 78 -96 23 0 23 0 23 150 0 143 -1 150 -20 150 -18 0
-20 -7 -21 -57 0 -32 -3 -76 -7 -97 l-7 -39 -55 96 c-50 90 -72 111 -93 90z"/>
<path d="M5829 4161 c-28 -28 -29 -33 -29 -123 0 -67 4 -100 15 -115 20 -29
75 -46 107 -34 28 11 68 56 68 77 0 23 -41 16 -62 -11 -24 -30 -41 -32 -68 -5
-26 26 -28 133 -4 168 21 30 59 29 80 -3 29 -44 64 -27 42 20 -26 58 -103 71
-149 26z"/>
<path d="M6120 4040 l0 -150 85 0 c78 0 85 2 85 20 0 16 -8 19 -62 22 l-63 3
-3 38 c-3 30 0 37 15 38 10 1 23 2 28 4 6 1 22 3 38 3 20 2 27 7 27 21 0 17
-8 20 -52 23 l-53 3 -3 38 -3 37 65 0 c64 0 66 1 66 25 0 25 -1 25 -85 25
l-85 0 0 -150z"/>
<path d="M6623 4180 c-39 -16 -59 -80 -25 -80 9 0 23 9 30 21 17 27 56 22 60
-8 2 -15 -16 -49 -52 -99 -31 -42 -56 -87 -56 -100 0 -23 2 -24 80 -24 73 0
80 2 80 19 0 17 -8 20 -50 23 l-50 3 51 75 c57 84 60 117 13 158 -27 23 -45
26 -81 12z"/>
<path d="M6903 4180 c-35 -14 -43 -42 -43 -147 0 -86 3 -102 20 -121 28 -30
62 -36 98 -18 39 20 42 30 42 147 0 93 -2 102 -25 124 -25 26 -54 30 -92 15z"/>
<path d="M7168 4174 c-19 -10 -28 -23 -28 -39 0 -27 9 -32 28 -13 9 9 12 -15
12 -110 l0 -122 25 0 25 0 0 150 c0 165 -1 168 -62 134z"/>
<path d="M7413 4113 c-43 -94 -52 -153 -29 -187 52 -80 146 -44 146 55 0 39
-5 51 -26 68 -15 12 -33 21 -41 21 -16 0 -11 24 13 72 19 37 18 48 -7 48 -15
0 -28 -18 -56 -77z"/>
<path d="M5987 3019 c-309 -31 -607 -134 -832 -285 -78 -52 -175 -138 -175
-155 0 -22 181 -230 360 -412 243 -249 577 -528 757 -634 66 -38 77 -29 117
95 117 365 147 863 77 1270 -10 57 -23 108 -29 114 -15 15 -162 19 -275 7z"/>
<path d="M6500 3001 c-28 -8 -28 -6 -4 -141 8 -46 20 -160 26 -252 25 -347
-27 -765 -131 -1058 -16 -46 -28 -87 -25 -91 33 -54 657 55 999 175 190 66
188 65 255 167 68 105 126 234 166 364 25 79 28 107 28 230 1 139 1 141 -32
207 -38 78 -76 112 -182 167 -200 104 -517 189 -835 226 -137 16 -224 18 -265
6z"/>
<path d="M7988 2598 c20 -69 25 -104 25 -208 1 -135 -10 -208 -49 -328 -29
-91 -108 -255 -158 -330 -20 -30 -36 -58 -36 -63 0 -5 12 -11 28 -15 49 -11
275 -85 367 -121 521 -204 1157 -630 1651 -1107 83 -79 150 -136 161 -136 22
0 71 33 274 186 252 189 509 395 509 408 0 19 -160 206 -295 345 -559 576
-1409 1098 -2240 1376 -104 35 -206 67 -226 70 l-37 7 26 -84z"/>
<path d="M4575 2421 c-482 -194 -813 -364 -1196 -617 -201 -132 -365 -253
-524 -385 -107 -89 -399 -377 -453 -446 l-33 -42 68 -64 c106 -101 236 -210
383 -321 150 -114 357 -256 373 -256 6 0 60 48 121 108 619 601 1290 995 2060
1208 88 24 161 46 164 49 3 3 -17 24 -44 47 -222 194 -366 341 -495 508 -78
99 -154 216 -175 265 -8 19 -18 35 -22 35 -4 0 -106 -40 -227 -89z"/>
</g>
</svg>
